<svg xmlns="http://www.w3.org/2000/svg" height="200.029" width="183.355"><path d="M97.525 51.749c2.1-2.478.567-12.649-.808-14.169-1.331-1.47-10.184-1.413-12.464.081-1.331.873-3.82 5.646-4.755 9.89a.258.258 0 010 .042.479.479 0 01-.05.169 16.034 16.034 0 00-.269 1.717c-.193 1.993.127 3.459.927 4.24 1.077 1.051 3.346 1.551 6.387 1.409 4.452-.213 9.709-1.82 11.032-3.379zM19.013 100.04l5.125-9.65a.492.492 0 01.432-.261.488.488 0 01.431.257l7.46 13.727c-1.386-7.571-4.3-26.585-.23-34.145 4.955-9.2 40.6-15.284 46.64-16.255a5.212 5.212 0 01-.673-2.139 150.162 150.162 0 01-13.086-3.518 40.129 40.129 0 01-11.1 1.565 41.474 41.474 0 01-7.342-.664c-1.587.405-23.12 6-26.778 11.644a11.571 11.571 0 00-1.249 4.182v.006a.494.494 0 01-.035.21 60.813 60.813 0 00-.534 6.4.627.627 0 010 .074c-.387 10.124.575 23.85.939 28.567zM149.106 104.734l5.965-14.627a.489.489 0 01.4-.3.484.484 0 01.457.206l8.1 11.547c.275-2.533.842-8.488.886-14.8.075-10.871-1.408-17.839-4.291-20.15q-.779-.625-1.654-1.282l-.021-.015c-6.108-4.564-16.184-10.224-37.692-15.692a118.373 118.373 0 01-17.753 1.359c-1.5 0-2.981-.034-4.457-.094a4.364 4.364 0 01-.769 1.5 8.37 8.37 0 01-3.143 1.921c3.18.781 10.659 2.671 18.671 5.063 14.213 4.246 23.236 7.971 26.82 11.072 3.624 3.137 6.159 10.285 7.532 21.245.656 5.285.878 10.228.949 13.047z" fill="#0083d1"/><path d="M164.853 102.96a.491.491 0 01-.889.22l-8.324-11.868-6.536 16.029a.49.49 0 01-.454.3.458.458 0 01-.1-.01.49.49 0 01-.4-.484 125.805 125.805 0 00-2.058-21.974l-9.751 1.967-3.871 88.77 42.222-12.815 4.943-84.688-13.855 2.795a140.152 140.152 0 01-.927 21.758zM139.979 71.182a16.263 16.263 0 00-2.077-1.482l-.8.16-.71 16.274 9.5-1.917c-1.204-5.536-3.061-10.567-5.913-13.035zM161.235 65.844c2.853 2.288 4.078 8.051 4.494 14.372l16.154-3.258V60.929l-21.455 4.279c.276.214.547.427.807.636z" fill="#85c3e9"/><path d="M93.424 54.901a28.816 28.816 0 01-6.881 1.208c-.325.015-.666.024-1.016.024l24.121 18.37a.5.5 0 01.1.106l.015.023a.5.5 0 01.069.164v.005a.416.416 0 01.01.1l-1.959 108.478 23.6-7.163 4.689-107.5c-12.126-6.424-40.586-13.301-42.748-13.815zm34.134 16.524c-1.475.36-2.961.663-4.449.954-1.492.274-2.986.536-4.491.742s-3.013.39-4.541.473c1.452-.482 2.923-.87 4.4-1.223s2.961-.664 4.449-.956c1.492-.274 2.986-.537 4.49-.743s3.014-.39 4.542-.472c-1.453.484-2.923.872-4.4 1.225z" fill="#0083d1"/><path d="M50.193 104.526a.523.523 0 01-.1.009.4.4 0 01-.067-.014.488.488 0 01-.119-.025.51.51 0 01-.11-.074.444.444 0 01-.047-.031l-18.5-18.565a154.739 154.739 0 002.8 21.227.493.493 0 01-.311.563.5.5 0 01-.17.03.489.489 0 01-.431-.257l-1.672-3.076 4.384 64.014 21.7 29.076-4.948-93.362zM19.097 101.983a.491.491 0 01-.923-.187c-.089-1.013-1.552-17.942-1.079-30.166l-11.957-12 3.858 72.723 14.97 20.058-3.777-52.486z" fill="#71a3c3"/><path d="M88.73 96.752l10.06 25.26a.491.491 0 01-.274.638l-26.26 10.458a.479.479 0 01-.181.035.492.492 0 01-.457-.31l-12.028-30.2-6.023 1.215 5.008 94.5 48.319-14.665 1.642-90.923zM53.857 88.235a.492.492 0 010-.373l.645-1.53-3.759.749-.154 16.362 8.627-1.741zM64.551 67.444a18.509 18.509 0 001.13 9.738l.714-.285c-1.429-7.961-.7-13.157.535-16.453a18.694 18.694 0 00-2.379 7z" fill="#85c3e9"/><path d="M54.967 85.239l1.84-4.366a.488.488 0 01.27-.265l7.694-3.064a19.5 19.5 0 01-1.193-10.235 17.545 17.545 0 015.268-10.737c-12.5 2.558-31.675 7.388-35.551 13.541l17.116 16.034z" fill="#85c3e9"/><path d="M19.07 60.066c1.724-2.657 6.909-5.23 12.317-7.315l-13.372 3.27.4 5.491a6.462 6.462 0 01.655-1.446z" fill="#0077b9"/><path d="M136.622 46.088a98.606 98.606 0 01-12.972 3.141c20.029 5.29 29.745 10.741 35.734 15.186l21.629-4.314-32.6-19.148a54.019 54.019 0 01-11.791 5.135z" fill="#85c3e9"/><path d="M49.766 86.889L32.819 71.013c-1.433 3.151-1.8 8.114-1.632 13.363l18.429 18.49z" fill="#71a3c3"/><path d="M68.122 81.881a.493.493 0 01-.592-.087 12.568 12.568 0 01-.891-1.039A2.892 2.892 0 0065 83.238l5.5-1.1a2.892 2.892 0 00-2.343-1.657c.068.283.13.558.2.848a.491.491 0 01-.235.552zM67.883 86.249a2.893 2.893 0 002.889-2.89 2.63 2.63 0 00-.014-.268l-5.635 1.123a2.9 2.9 0 002.76 2.035z" fill="#85c3e9"/><path d="M54.134 48.963c-5.34 0-18.651-1.008-26.9-10.346a10.076 10.076 0 01-2.587-4.759l-.034-.2.117-.165a2.88 2.88 0 012.508-1.153c2.5 0 6.468 1.906 11.958 4.543a195.373 195.373 0 0024.322 10.141l1.667.551-1.711.394a42.361 42.361 0 01-9.34.994z" fill="#d85927"/><path d="M38.988 37.326c-7.579-3.642-12.21-5.864-13.852-3.549a9.606 9.606 0 002.471 4.515c9.026 10.224 25.712 11.513 35.762 9.2a195.646 195.646 0 01-24.381-10.166z" fill="#0077b9"/><path d="M66.096 78.074a13.455 13.455 0 00.808 1.386 65.86 65.86 0 01-.328-1.578z" fill="#fff"/><path d="M17.665 64.844l-.621-8.625c-.018-.013-.038-.019-.055-.034L1.474 41.65v12.915l15.682 15.733c.105-2.008.269-3.86.509-5.454z" fill="#71a3c3"/><path d="M17.378 55.166l26.519-6.486.608-.167c-.822-.192-1.6-.4-2.316-.61-6.273-1.851-12-5.2-15.319-8.961a14.1 14.1 0 01-1.833-2.564L2.021 40.817l15.33 14.361c.01-.003.017-.01.027-.012z" fill="#85c3e9"/><path d="M24.581 91.658l-3.525 6.636 4 55.58 9.7 13-4.426-64.634z" fill="#0077b9"/><path d="M39.413 36.44c8.492 4.08 21.277 10.22 38.739 14.116 0-.373.013-.759.053-1.172.045-.456.114-.93.205-1.414a34.111 34.111 0 01-3.558-.684c-1.336-.34-2.663-.7-3.971-1.125q-3.93-1.243-7.739-2.8c-1.281-.49-2.534-1.044-3.806-1.557a86.832 86.832 0 01-3.73-1.723c-1.214-.636-2.432-1.263-3.624-1.938s-2.368-1.38-3.523-2.119a94.934 94.934 0 013.8 1.563c1.264.52 2.517 1.059 3.765 1.6 2.514 1.051 4.961 2.249 7.489 3.258q3.779 1.547 7.665 2.776c1.293.415 2.6.774 3.911 1.108a32.66 32.66 0 003.529.675c.068-.285.141-.572.221-.86a22.774 22.774 0 01-7.295-4.169 44.365 44.365 0 01-6.049-6.419c-1.844-2.274-3.568-4.616-5.358-6.876a20.4 20.4 0 00-6.436-5.675 12.872 12.872 0 013.874 2.08 24 24 0 013.237 3.013c2.007 2.159 3.683 4.554 5.467 6.834a41.148 41.148 0 005.895 6.289 21.783 21.783 0 006.944 3.98 23.1 23.1 0 014-7.841c-4.579-2.309-8.007-6.155-11.05-10.379-1.227-1.7-2.394-3.463-3.547-5.208-4.665-7.06-9.071-13.727-16.584-15.186-1.91-.367-7.36 3.513-13.9 9.893-6.049 5.9-11.39 12.312-12.7 15.241a3.148 3.148 0 00-.2.668c2.369-1.668 6.876.497 14.276 4.051z" fill="#0083d1"/><path d="M83.966 36.692c2.612-1.388 10.478-1.636 12.986-.154 1.2-1.88 5.7-8.851 11.113-16.173l-34.73 6.7c2.944 3.987 6.269 7.55 10.631 9.627z" fill="#85c3e9"/><path d="M97.748 37.352a17.406 17.406 0 011.512 5.493 67.198 67.198 0 014.359-2.265c1.707-.8 3.424-1.576 5.189-2.244a44.273 44.273 0 015.437-1.562 35.2 35.2 0 015.591-.752 54.928 54.928 0 00-5.418 1.4c-1.776.554-3.515 1.205-5.241 1.887-1.733.662-3.462 1.347-5.137 2.154a64.059 64.059 0 00-4.649 2.435 21.332 21.332 0 01-.1 6.01 112 112 0 0037.033-4.76c9.872-3.157 16.446-7.387 16.748-10.776.574-6.415-13.31-26.5-21.524-31.738.007.07.015.141.017.214.203 7.508-29.945 31.459-33.817 34.504z" fill="#0083d1"/><path d="M108.848 75.494l-26.48 5.281 5.993 15.049 20.194-4.074z" fill="#85c3e9"/><path d="M113.831 22.573c13.948-12.493 16.808-17.606 16.751-19.7a1.248 1.248 0 00-.549-1.077 2.049 2.049 0 00-1.206-.358 3.359 3.359 0 00-.666.072c-3.7.748-10.157 7.188-18.691 18.625-4.375 5.864-8.267 11.675-10.356 14.868 3.128-2.507 8.955-7.269 14.717-12.43z" fill="#0077b9"/><path d="M79.63 54.589c-.831.131-4.079.658-8.512 1.528-.694.467-6.493 4.912-3.789 20.408l6.118-2.436a.5.5 0 01.38.006l6.944 3.051a.488.488 0 01.258.268l.97 2.434 26.188-5.223-24.385-18.571a7.624 7.624 0 01-4.172-1.465z" fill="#85c3e9"/><path d="M77.143 121.726a6.919 6.919 0 001.751 1.569 2.269 2.269 0 002.775-.046 2.917 2.917 0 00.628-3.255c-1.777.621-3.53 1.221-5.154 1.732zM81.132 113.737a1.079 1.079 0 00-.28 1.054 4.794 4.794 0 00.518 1.5q.628-.2 1.252-.385c.882-.27 1.779-.545 2.663-.849a5.822 5.822 0 00-1.84-1.236 2.663 2.663 0 00-2.313-.084zM81.856 117.168q.156.263.315.524c.217.358.435.722.632 1.085l1.511-.531 2.492-.874c-.018-.052-.035-.106-.053-.155a5.748 5.748 0 00-.773-1.369c-1.02.364-2.054.686-3.072 1zM81.331 118.201c-.146-.24-.292-.482-.433-.725a29.631 29.631 0 00-2.783 1.042c-.491.218-.985.462-1.463.7-.241.119-.486.239-.733.357a6.309 6.309 0 00.626 1.314c1.661-.52 3.478-1.139 5.319-1.781-.163-.293-.345-.593-.533-.907zM72.276 98.915a2.917 2.917 0 00.628-3.255c-1.78.621-3.535 1.22-5.162 1.734a7.1 7.1 0 001.759 1.566 2.269 2.269 0 002.775-.045zM77.16 105.003c.1.175.209.35.314.524.217.358.435.722.632 1.085l1.511-.531q1.281-.452 2.493-.874c-.018-.052-.035-.106-.054-.155a5.728 5.728 0 00-.772-1.369 68.45 68.45 0 01-3.071.995c-.349.107-.7.215-1.053.325zM71.938 93.871c-.145-.24-.291-.482-.433-.725a29.631 29.631 0 00-2.783 1.041c-.491.218-.985.462-1.463.7-.243.12-.49.24-.738.36a6 6 0 00.62 1.314c1.664-.52 3.485-1.141 5.331-1.784-.159-.295-.346-.596-.534-.906zM72.464 92.838q.156.263.314.524c.217.358.435.722.632 1.085l1.513-.532q1.28-.45 2.49-.873c-.017-.052-.034-.106-.053-.155a5.708 5.708 0 00-.772-1.369c-1.02.364-2.054.685-3.072 1-.348.097-.703.21-1.052.32zM71.977 91.96c.42-.132.838-.259 1.253-.386a78.74 78.74 0 002.662-.848 5.819 5.819 0 00-1.84-1.236 2.662 2.662 0 00-2.312-.084 1.081 1.081 0 00-.281 1.054 4.832 4.832 0 00.518 1.5zM76.674 104.125c.419-.131.838-.259 1.253-.386a78.74 78.74 0 002.662-.848 5.822 5.822 0 00-1.84-1.236 2.656 2.656 0 00-2.313-.083 1.081 1.081 0 00-.281 1.054 4.831 4.831 0 00.519 1.499z" fill="#fff"/><path d="M97.696 121.915L80.191 77.959l-6.571-2.887-6.112 2.434c.123.643.257 1.3.41 1.979a3.873 3.873 0 013.714 2.923 3.869 3.869 0 11-7.55 1.677.485.485 0 01-.062-.16.476.476 0 01.009-.216 3.868 3.868 0 01-.019-.359 3.874 3.874 0 012.046-3.412 14.522 14.522 0 01-.873-1.51l-7.552 3.007-2.788 6.614 17.505 43.956zm-9.723-7.947a.491.491 0 11.427.885c-.479.231-.971.439-1.468.636a6.559 6.559 0 01.739 1.374c.023.061.04.122.061.184.551-.19 1.1-.377 1.626-.555a.491.491 0 01.312.932c-.555.186-1.127.382-1.706.582a4.172 4.172 0 01-.377 2.468.491.491 0 01-.88-.437 3.152 3.152 0 00.306-1.7q-1.156.4-2.373.832l-1.419.5a3.9 3.9 0 01-.908 4.32 2.941 2.941 0 01-1.956.734 3.849 3.849 0 01-1.967-.587 8.3 8.3 0 01-2.258-2.1c-.572.173-1.13.338-1.654.481a.477.477 0 01-.129.017.491.491 0 01-.129-.965c.43-.118.884-.25 1.348-.389a6.868 6.868 0 01-.549-1.2c-.241.1-.483.2-.729.3a6.2 6.2 0 01-.563.147l-.155.036a.487.487 0 01-.216.08.964.964 0 01-.125.008.48.48 0 01-.529-.4c-.083-.468.306-.56.8-.676.181-.043.373-.086.445-.111.281-.106.559-.226.836-.349a3.688 3.688 0 011.372-3.253l.28-.3a.491.491 0 01.726.662c-.1.106-.194.209-.289.311a2.959 2.959 0 00-1.138 2.136l.485-.238c.486-.24.989-.488 1.5-.714a29.64 29.64 0 012.707-1.023 5.55 5.55 0 01-.547-1.68 1.972 1.972 0 01.654-1.957 3.525 3.525 0 013.28-.052 6.991 6.991 0 012.475 1.779 21.87 21.87 0 001.685-.713zM66.739 97.703c-.571.174-1.129.338-1.653.481a.488.488 0 01-.6-.344.492.492 0 01.344-.6c.43-.117.884-.249 1.348-.388a6.93 6.93 0 01-.549-1.2c-.24.1-.482.205-.729.3a5.778 5.778 0 01-.563.147l-.155.037a.5.5 0 01-.216.08 1.155 1.155 0 01-.125.008.481.481 0 01-.529-.4c-.083-.468.306-.56.8-.677.181-.042.373-.086.446-.111.28-.106.559-.225.835-.349a3.689 3.689 0 011.373-3.253l.279-.3a.491.491 0 01.726.662l-.289.31a2.965 2.965 0 00-1.137 2.137l.483-.238c.487-.24.99-.488 1.5-.714.878-.39 1.79-.719 2.708-1.023a5.494 5.494 0 01-.547-1.681 1.97 1.97 0 01.653-1.956 3.525 3.525 0 013.281-.052 7.006 7.006 0 012.474 1.778c.575-.219 1.142-.45 1.687-.713a.491.491 0 11.427.885c-.479.231-.971.439-1.468.636a6.488 6.488 0 01.739 1.374c.024.061.04.122.061.184.552-.191 1.1-.377 1.626-.555a.491.491 0 11.312.932c-.555.186-1.126.382-1.706.582a4.17 4.17 0 01-.377 2.468.491.491 0 01-.88-.437 3.145 3.145 0 00.306-1.7q-1.155.4-2.371.832l-1.421.5a3.9 3.9 0 01-.908 4.319 2.935 2.935 0 01-1.955.734 3.852 3.852 0 01-1.968-.586 8.313 8.313 0 01-2.262-2.104zm3.043 12.647a.527.527 0 01-.13.017.491.491 0 01-.129-.965c.431-.118.885-.25 1.349-.389a6.812 6.812 0 01-.55-1.2c-.24.1-.482.205-.728.3a5.897 5.897 0 01-.562.147l-.156.037a.487.487 0 01-.216.08 1.188 1.188 0 01-.126.008.479.479 0 01-.528-.4c-.083-.469.306-.561.8-.678.181-.043.373-.086.445-.111.28-.106.559-.225.836-.349a3.686 3.686 0 011.371-3.251l.281-.3a.491.491 0 11.725.662c-.1.106-.194.21-.289.311a2.962 2.962 0 00-1.137 2.136l.483-.237c.487-.24.99-.489 1.5-.715a29.42 29.42 0 012.707-1.023 5.523 5.523 0 01-.547-1.68 1.971 1.971 0 01.654-1.957 3.525 3.525 0 013.28-.052 6.989 6.989 0 012.475 1.779c.574-.22 1.142-.451 1.687-.714a.491.491 0 11.427.885c-.48.231-.971.439-1.469.636a6.556 6.556 0 01.74 1.374c.023.061.039.122.06.184.552-.191 1.1-.377 1.626-.555a.491.491 0 01.312.932c-.554.186-1.126.382-1.706.582a4.161 4.161 0 01-.377 2.468.491.491 0 01-.879-.437 3.151 3.151 0 00.3-1.7c-.771.269-1.56.546-2.373.832l-1.418.5a3.9 3.9 0 01-.909 4.319 2.932 2.932 0 01-1.955.735 3.849 3.849 0 01-1.967-.587 8.322 8.322 0 01-2.259-2.1c-.566.173-1.124.341-1.648.481z" fill="#fff"/><path d="M74.197 111.13a2.271 2.271 0 002.776-.046 2.918 2.918 0 00.627-3.255 189.82 189.82 0 01-5.162 1.735 7.134 7.134 0 001.759 1.566zM76.634 106.036c-.145-.24-.291-.482-.432-.725a29.142 29.142 0 00-2.783 1.042c-.492.218-.987.462-1.465.7-.242.12-.489.24-.737.36a5.983 5.983 0 00.621 1.314c1.664-.52 3.484-1.141 5.33-1.784a27.189 27.189 0 00-.534-.907z" fill="#fff"/><path d="M77.754 95.93c1.32-2.658-1.074-5.913-3.518-6.9-1.529-.615-3.531-.571-3.264 1.489.212 1.641 1.721 3.354 2.358 4.873 1.158 2.757-1.168 5.73-4.081 3.99a7.555 7.555 0 01-3.372-4.749c-.211-1.5.645-2.207 1.527-3.173" fill="none" stroke="#fff" stroke-linecap="round" stroke-linejoin="round" stroke-width=".982"/><path d="M78.794 90.085c-3.246 1.566-6.974 2.191-10.271 3.654-1.276.566-2.486 1.261-3.8 1.757-.176.066-1.281.29-.819.235M80.121 92.633c-4.821 1.616-10.888 3.916-15.165 5.082M82.45 108.095c1.32-2.658-1.073-5.913-3.518-6.9-1.529-.614-3.53-.571-3.264 1.49.212 1.64 1.721 3.353 2.359 4.872 1.157 2.757-1.168 5.73-4.081 3.99a7.556 7.556 0 01-3.373-4.748c-.211-1.5.645-2.207 1.527-3.174" fill="none" stroke="#fff" stroke-linecap="round" stroke-linejoin="round" stroke-width=".982"/><path d="M83.49 102.25c-3.246 1.566-6.974 2.191-10.27 3.654-1.277.566-2.487 1.262-3.8 1.757-.175.066-1.281.291-.819.235M84.813 104.798c-4.82 1.616-10.888 3.916-15.164 5.082M87.147 120.261c1.32-2.659-1.074-5.914-3.519-6.9-1.528-.614-3.53-.571-3.263 1.49.212 1.64 1.72 3.353 2.358 4.873 1.157 2.756-1.168 5.729-4.081 3.989a7.552 7.552 0 01-3.372-4.748c-.211-1.5.644-2.207 1.527-3.174" fill="none" stroke="#fff" stroke-linecap="round" stroke-linejoin="round" stroke-width=".982"/><path d="M88.186 114.415c-3.245 1.566-6.974 2.192-10.27 3.654-1.276.566-2.487 1.262-3.8 1.757-.176.066-1.282.291-.819.235M89.513 116.963c-4.821 1.616-10.889 3.916-15.165 5.083" fill="none" stroke="#fff" stroke-linecap="round" stroke-linejoin="round" stroke-width=".982"/><path d="M59.59 102.63l-6.022 1.215.253 4.783 7.561-1.5zM165.906 86.405l13.426-2.662.311-5.331-13.855 2.795c.09 1.722.125 3.474.118 5.198zM108.537 92.756l-19.806 4 1.829 4.592 17.886-3.546zM136.124 92.315l10.826-2.146a84.368 84.368 0 00-.85-4.986l-9.751 1.967z" fill="#70b1de"/><path d="M52.847 108.808l-.253-4.767-2.4.485a.523.523 0 01-.1.009.4.4 0 01-.067-.014.488.488 0 01-.119-.025.51.51 0 01-.11-.074.444.444 0 01-.047-.031l-18.5-18.565c.091 1.908.244 3.834.433 5.707l17.817 17.9zM17.095 71.63l-11.957-12 .294 5.542 11.57 11.62c.002-1.771.029-3.51.093-5.162z" fill="#5d91ab"/><path d="M98.367 49.538c-10.408 4.117-16.293 2.481-19.233.693a4.6 4.6 0 00.976 3.488c1.077 1.051 3.346 1.551 6.387 1.409 4.448-.209 9.705-1.82 11.028-3.379a4.721 4.721 0 00.842-2.211zM86.543 56.109c-.325.015-.666.024-1.016.024l1.27.967a19.49 19.49 0 006.609-1.274s33 9.084 42.7 14.345l.064-1.456c-12.124-6.423-40.584-13.3-42.746-13.814a28.816 28.816 0 01-6.881 1.208z" fill="#0077b9"/><path d="M139.979 71.182a16.263 16.263 0 00-2.077-1.482l-.8.16-.092 2.1a52.491 52.491 0 013.635 13.316l5.252-1.059c-1.209-5.536-3.066-10.567-5.918-13.035zM154.72 105.629l-.257-11.43-2.637 6.468zM146.95 92.315l.352.6c-.291-2.528-.68-5.173-1.2-7.736l-5.312 1.072a105.38 105.38 0 01.749 20.212z" fill="#70b1de"/><path d="M121.253 49.622a118.373 118.373 0 01-17.753 1.359c-1.5 0-2.981-.034-4.457-.094a4.95 4.95 0 01-.532 1.175c4.339.808 13.036 1.494 27.107-1.284a237.446 237.446 0 00-4.365-1.156zM78.204 51.574a150.162 150.162 0 01-13.086-3.518 40.129 40.129 0 01-11.1 1.565 41.474 41.474 0 01-7.342-.664c-.514.131-3.118.807-6.529 1.852 14.433 1.811 24.208-1.681 24.208-1.681l11.639 3.526a3.658 3.658 0 00.8 1.406c.874-.15 1.582-.266 2.084-.347a5.212 5.212 0 01-.674-2.139z" fill="#0077b9"/><g fill="none" stroke-linecap="round" stroke-linejoin="round" stroke="#3e4147" stroke-width="1.965" transform="translate(-3628.387 -2123.885)"><path d="M3708.154 2177.955c3.438 3.356 15.84.7 18.132-2s.737-13.1-.818-14.816-10.723-1.555-13.1 0-7.652 13.461-4.214 16.816zM3707.818 2169.717c-12.867-4-16.729-19.223-25.734-22.824M3707.382 2171.432s-9.09-.475-30.536-11.525M3727.251 2167.522s10.5-6.388 20.972-7.615"/><path d="M3712.371 2161.135c-14.243-6.548-17.42-28.321-31.961-31.145-4.821-.937-24.355 19.2-27.139 25.416-3.11 7.2 17.807 22.557 40.236 16.026M3653.008 2157.544c3.7-6.059 19.581 9.978 54.036 17.514M3725.468 2161.135s25.855-40.991 33.233-35.852c6.712 4.675-33.233 35.852-33.233 35.852z"/><path d="M3758.7 2125.283c7.694 3.438 23.9 25.7 23.247 33.022s-26.621 17.219-54.878 15.964M3699.539 2206.396l-6.65 1.326M3737.737 2198.779l-27.656 5.515M3766.379 2193.067l-1.363.272"/><path d="M3776.773 2164.252l33.988 19.963-23.112 4.609M3700.868 2150.613l36.557-7.051M3645.712 2179.711l-16.342-15.311 24.324-4.691M3683.705 2209.554l-5.059 1.009-17.59-16.478M3793.792 2204.668l16.969-3.423v-17.029M3764.262 2210.625l10.612-2.141M3716.443 2220.272l20.982-4.233M3659.085 2208.467l19.4 19.462 9.8-1.978M3629.37 2164.4v14.25l16.609 16.664M3678.483 2227.929l.164-17.366"/><path d="M3808.557 2201.689l-5 85.667-117.057 35.525-49.6-66.467-3.934-74.154"/><path d="M3721.793 2178.277s38.381 9.052 46.894 16.419 8.349 36.344 8.349 36.344l6.876-16.862 8.841 12.6s3.909-30.777-3.438-36.671-18-11.609-39.626-17.1M3708.154 2177.955s-41.851 6.392-47.1 16.131c-5 9.287.891 36.954.891 36.954l-8.985-16.535-5.913 11.132s-3.11-35.361.819-41.418 27.162-11.877 27.162-11.877M3648.943 2222.073l4.02 55.864"/><path d="M3672.521 2173.013l-26.639 6.514.661 9.182M3659.201 2225.985l4.547 66.405M3712.371 2179.46l25.366 19.319-1.972 109.152M3765.061 2192.314l-4.717 108.157M3681.441 2227.333l5.063 95.549"/><circle cx="3696.269" cy="2207.244" r="3.38"/><path d="M3696.27 2205.337c-6.655-6.876-4.644-21.34 3.065-25.81 0 0-8.41 4.689-3.065 25.81z"/><path d="M3708.96 2201.48l-6.944-3.051-8.185 3.26-8.185 3.26-2.946 6.989 17.761 44.6 26.26-10.458zM3742.464 2197.479l17.879-3.394"/></g></svg>
